<?xml version="1.0" encoding="UTF-8" standalone="no"?>
<!DOCTYPE svg PUBLIC "-//W3C//DTD SVG 1.1//EN"
 "http://www.w3.org/Graphics/SVG/1.1/DTD/svg11.dtd">
<!-- Generated by graphviz version 9.0.0 (20230911.1827)
 -->
<!-- Title: G Pages: 1 -->
<svg width="364pt" height="417pt"
 viewBox="0.00 0.00 363.73 416.63" xmlns="http://www.w3.org/2000/svg" xmlns:xlink="http://www.w3.org/1999/xlink">
<g id="graph0" class="graph" transform="scale(1 1) rotate(0) translate(4 412.63)">
<title>G</title>
<polygon fill="white" stroke="none" points="-4,4 -4,-412.63 359.73,-412.63 359.73,4 -4,4"/>
<!-- (0, 0) -->
<g id="node1" class="node">
<title>(0, 0)</title>
<ellipse fill="none" stroke="black" cx="217.98" cy="-377.24" rx="31.39" ry="31.39"/>
<text text-anchor="middle" x="217.98" y="-372.19" font-family="Times,serif" font-size="14.00">(0, 0)</text>
</g>
<!-- (0, 0)&#45;&gt;(0, 0) -->
<g id="edge1" class="edge">
<title>(0, 0)&#45;&gt;(0, 0)</title>
<path fill="none" stroke="black" d="M247.88,-388.03C258.61,-388.27 267.37,-384.67 267.37,-377.24 267.37,-372.71 264.12,-369.6 259.15,-367.92"/>
<polygon fill="black" stroke="black" points="259.75,-364.47 249.38,-366.64 258.84,-371.41 259.75,-364.47"/>
<text text-anchor="middle" x="294.74" y="-372.19" font-family="Times,serif" font-size="14.00">0/(0, 0, 0)</text>
</g>
<!-- (0, 1) -->
<g id="node2" class="node">
<title>(0, 1)</title>
<ellipse fill="none" stroke="black" cx="162.98" cy="-261.95" rx="31.39" ry="31.39"/>
<text text-anchor="middle" x="162.98" y="-256.9" font-family="Times,serif" font-size="14.00">(0, 1)</text>
</g>
<!-- (0, 0)&#45;&gt;(0, 1) -->
<g id="edge2" class="edge">
<title>(0, 0)&#45;&gt;(0, 1)</title>
<path fill="none" stroke="black" d="M204.52,-348.52C197.6,-334.26 189.05,-316.65 181.51,-301.12"/>
<polygon fill="black" stroke="black" points="184.66,-299.6 177.15,-292.13 178.36,-302.66 184.66,-299.6"/>
<text text-anchor="middle" x="220.35" y="-314.55" font-family="Times,serif" font-size="14.00">1/(1, 1, 1)</text>
</g>
<!-- (1, 0) -->
<g id="node3" class="node">
<title>(1, 0)</title>
<ellipse fill="none" stroke="black" cx="210.98" cy="-31.39" rx="31.39" ry="31.39"/>
<text text-anchor="middle" x="210.98" y="-26.34" font-family="Times,serif" font-size="14.00">(1, 0)</text>
</g>
<!-- (0, 1)&#45;&gt;(1, 0) -->
<g id="edge3" class="edge">
<title>(0, 1)&#45;&gt;(1, 0)</title>
<path fill="none" stroke="black" d="M132.24,-254.12C95.98,-244.24 37.34,-222.08 11.23,-178.06 -3.01,-154.07 -4.27,-138.49 11.23,-115.28 46.09,-63.07 120.63,-43.7 168.14,-36.55"/>
<polygon fill="black" stroke="black" points="168.38,-40.05 177.81,-35.22 167.42,-33.11 168.38,-40.05"/>
<text text-anchor="middle" x="39.35" y="-141.62" font-family="Times,serif" font-size="14.00">0/(1, 1, 0)</text>
</g>
<!-- (1, 1) -->
<g id="node4" class="node">
<title>(1, 1)</title>
<ellipse fill="none" stroke="black" cx="105.98" cy="-146.67" rx="31.39" ry="31.39"/>
<text text-anchor="middle" x="105.98" y="-141.62" font-family="Times,serif" font-size="14.00">(1, 1)</text>
</g>
<!-- (0, 1)&#45;&gt;(1, 1) -->
<g id="edge4" class="edge">
<title>(0, 1)&#45;&gt;(1, 1)</title>
<path fill="none" stroke="black" d="M149.18,-233.53C141.88,-219.03 132.81,-201.01 124.87,-185.22"/>
<polygon fill="black" stroke="black" points="128.15,-183.95 120.53,-176.59 121.89,-187.09 128.15,-183.95"/>
<text text-anchor="middle" x="164.35" y="-199.26" font-family="Times,serif" font-size="14.00">1/(0, 0, 1)</text>
</g>
<!-- (1, 0)&#45;&gt;(0, 0) -->
<g id="edge5" class="edge">
<title>(1, 0)&#45;&gt;(0, 0)</title>
<path fill="none" stroke="black" d="M236.04,-51.06C254.01,-66.13 276.78,-89.08 286.98,-115.28 321.69,-204.51 291.11,-240.46 251.98,-327.85 249.74,-332.85 246.95,-337.88 243.94,-342.7"/>
<polygon fill="black" stroke="black" points="241.06,-340.71 238.4,-350.96 246.88,-344.6 241.06,-340.71"/>
<text text-anchor="middle" x="328.35" y="-199.26" font-family="Times,serif" font-size="14.00">0/(1, 0, 1)</text>
</g>
<!-- (1, 0)&#45;&gt;(0, 1) -->
<g id="edge6" class="edge">
<title>(1, 0)&#45;&gt;(0, 1)</title>
<path fill="none" stroke="black" d="M219.49,-61.86C220.94,-68.06 222.22,-74.6 222.98,-80.78 228.22,-123.74 232.54,-136.97 218.98,-178.06 212.95,-196.33 201.66,-214.3 190.78,-228.82"/>
<polygon fill="black" stroke="black" points="188.08,-226.6 184.69,-236.63 193.6,-230.9 188.08,-226.6"/>
<text text-anchor="middle" x="255.35" y="-141.62" font-family="Times,serif" font-size="14.00">1/(0, 1, 0)</text>
</g>
<!-- (1, 1)&#45;&gt;(1, 0) -->
<g id="edge7" class="edge">
<title>(1, 1)&#45;&gt;(1, 0)</title>
<path fill="none" stroke="black" d="M126.97,-123.02C142.85,-105.89 164.84,-82.17 182.33,-63.29"/>
<polygon fill="black" stroke="black" points="184.76,-65.83 188.99,-56.11 179.62,-61.07 184.76,-65.83"/>
<text text-anchor="middle" x="191.35" y="-83.98" font-family="Times,serif" font-size="14.00">0/(0, 1, 1)</text>
</g>
<!-- (1, 1)&#45;&gt;(1, 1) -->
<g id="edge8" class="edge">
<title>(1, 1)&#45;&gt;(1, 1)</title>
<path fill="none" stroke="black" d="M135.88,-157.47C146.61,-157.7 155.37,-154.1 155.37,-146.67 155.37,-142.14 152.12,-139.04 147.15,-137.36"/>
<polygon fill="black" stroke="black" points="147.75,-133.91 137.38,-136.07 146.84,-140.85 147.75,-133.91"/>
<text text-anchor="middle" x="182.74" y="-141.62" font-family="Times,serif" font-size="14.00">1/(1, 0, 0)</text>
</g>
</g>
</svg>
